<?xml version="1.0" encoding="utf-8"?>
<!-- Generator: Adobe Illustrator 27.9.0, SVG Export Plug-In . SVG Version: 6.00 Build 0)  -->
<svg version="1.1" id="Layer_1" xmlns="http://www.w3.org/2000/svg" xmlns:xlink="http://www.w3.org/1999/xlink" x="0px" y="0px"
	 viewBox="0 0 512 512" style="enable-background:new 0 0 512 512;" xml:space="preserve">
<style type="text/css">
	.st0{fill-rule:evenodd;clip-rule:evenodd;fill:#FF3A2F;}
	.st1{opacity:0.25;fill-rule:evenodd;clip-rule:evenodd;fill:#020403;enable-background:new    ;}
	.st2{fill-rule:evenodd;clip-rule:evenodd;fill:#142A3B;}
	.st3{opacity:0.35;fill-rule:evenodd;clip-rule:evenodd;fill:#020403;enable-background:new    ;}
</style>
<g id="group-134svg">
	<path id="path-1" class="st0" d="M376.68,511.61H51.47V110.98h325.21V511.61z"/>
	<path id="path-2" class="st1" d="M319.4,112.36v278.16c0,32.85-26.75,59.47-59.75,59.47H52.12v61.39h324.44V112.36H319.4z"/>
	<path id="path-3" class="st2" d="M146.91,460.95c-4.7,0-8.25-3.82-8.25-8.52V213.91c0-4.71,3.54-8.52,8.25-8.52
		s8.25,3.81,8.25,8.52v238.53C155.16,457.14,151.62,460.95,146.91,460.95z"/>
	<path id="path-4" class="st2" d="M274.17,460.95c-4.7,0-8.25-3.82-8.25-8.52V213.91c0-4.71,3.54-8.52,8.25-8.52
		s8.25,3.81,8.25,8.52v238.53C282.42,457.14,278.87,460.95,274.17,460.95z"/>
	<path id="path-5" class="st3" d="M374.78,160.81v-48.45H56.11L374.78,160.81z"/>
	<path id="path-6" class="st0" d="M324.65,97.53L194.12,56.45l18.06-56.84l130.54,41.08L324.65,97.53z"/>
	<path id="path-7" class="st0" d="M447.03,148.83c-1.27,0-2.56-0.19-3.84-0.59L67.9,30.12C61.17,28,57.43,20.83,59.55,14.1
		c2.12-6.74,9.29-10.47,16.02-8.35l375.29,118.11c6.74,2.12,10.48,9.3,8.35,16.03C457.5,145.34,452.46,148.83,447.03,148.83z"/>
</g>
</svg>
